<svg width="25" height="24" viewBox="0 0 25 24" fill="none" xmlns="http://www.w3.org/2000/svg">
<path d="M8.86297 9.05793H14.8946M8.86297 12.5141H12.7013M13.2774 18.9268H14.3388C17.2255 18.9268 19.7367 16.8499 20.4143 13.9021C20.7508 12.4382 20.7508 10.9113 20.4143 9.44741L20.3255 9.06088C19.6724 6.21958 17.5437 4.01204 14.8308 3.36264L14.4497 3.27141C12.9379 2.90953 11.368 2.90953 9.85622 3.27141L9.63317 3.32481C6.82346 3.99738 4.61881 6.28371 3.9424 9.22642C3.57254 10.8355 3.57592 12.5287 3.94578 14.1378C4.63276 17.1265 6.65357 19.6138 9.36446 20.7728L9.48262 20.8233C10.6557 21.3249 11.9996 20.7208 12.4809 19.4902C12.6134 19.1515 12.9289 18.9268 13.2774 18.9268Z" stroke="#ABABAB" stroke-width="1.5" stroke-linecap="round"/>
</svg>
